<svg xmlns="http://www.w3.org/2000/svg" width="40.753" height="24.155" viewBox="0 0 40.753 24.155"><defs><style>.a,.d{fill:#33a0ff;}.a{opacity:0;}.b{fill:#d8dce6;}.c{fill:#fff;}</style></defs><g transform="translate(-1.433 -2.886)"><path class="a" d="M89.261,141.347H84.944L58,154.341v4.622a2.529,2.529,0,0,0,2.485,2.442H89.261a2.355,2.355,0,0,0,2.312-2.4q0-.023,0-.046V143.876a2.4,2.4,0,0,0-2.262-2.527Z" transform="translate(-53.157 -136.115)"/><path class="b" d="M40.753,85.1V99.848a2.96,2.96,0,0,1-2.96,2.96H2.908A2.907,2.907,0,0,1,0,99.9c0-.018,0-.036,0-.053V81.613a2.907,2.907,0,0,1,2.854-2.959H37.793a2.96,2.96,0,0,1,2.96,2.96V85.1Z" transform="translate(1.433 -75.767)"/><g transform="translate(5.817 5.582)"><ellipse class="c" cx="2.114" cy="2.114" rx="2.114" ry="2.114" transform="translate(30.128 14.113)"/><ellipse class="c" cx="9.408" cy="9.408" rx="9.408" ry="9.408" transform="translate(7.77 0)"/><ellipse class="d" cx="2.114" cy="2.114" rx="2.114" ry="2.114" transform="translate(0 0.37)"/></g><path class="d" d="M165.343,139.294h-.951a7.711,7.711,0,0,0-.264-1.057h1.216a1.057,1.057,0,1,0,0-2.114h-6.5a1.057,1.057,0,1,0,0,2.114h1.9c.529,0,1,.529,1.321,1.057h-3.224a1.057,1.057,0,1,0,0,2.114h3.224c-.053,0-.053.053-.106.106a1.8,1.8,0,0,1-1.216.423h-1.9a1,1,0,0,0-.951.687,1.11,1.11,0,0,0,.264,1.163l4.6,4.387a1,1,0,0,0,.74.264,1.057,1.057,0,0,0,.74-1.8l-2.8-2.643a3.647,3.647,0,0,0,2.96-2.59h.951a1.057,1.057,0,0,0,0-2.114Z" transform="translate(-139.389 -127.211)"/></g></svg>