<svg xmlns="http://www.w3.org/2000/svg" width="30.704" height="30.704" viewBox="0 0 30.704 30.704"><defs><style>.a{fill:#33a0ff;}</style></defs><path class="a" d="M15.351,0A15.352,15.352,0,1,0,30.7,15.351,15.352,15.352,0,0,0,15.351,0Zm3.2,23.792q-1.185.468-1.891.712a4.989,4.989,0,0,1-1.64.246,3.269,3.269,0,0,1-2.231-.7,2.26,2.26,0,0,1-.794-1.777,6.453,6.453,0,0,1,.058-.856c.04-.291.1-.619.191-.986l.989-3.493c.087-.335.162-.654.222-.95a4.213,4.213,0,0,0,.088-.823,1.267,1.267,0,0,0-.276-.932,1.565,1.565,0,0,0-1.057-.261,2.773,2.773,0,0,0-.786.117c-.266.082-.5.156-.688.229l.261-1.076q.971-.4,1.858-.677a5.491,5.491,0,0,1,1.677-.283,3.208,3.208,0,0,1,2.2.689,2.289,2.289,0,0,1,.772,1.788q0,.228-.053.8a5.366,5.366,0,0,1-.2,1.054L16.266,20.1c-.081.279-.152.6-.217.957a5.058,5.058,0,0,0-.095.814,1.168,1.168,0,0,0,.311.946,1.739,1.739,0,0,0,1.075.252,3.118,3.118,0,0,0,.814-.126,4.626,4.626,0,0,0,.658-.221ZM18.373,9.655a2.348,2.348,0,0,1-1.657.639,2.373,2.373,0,0,1-1.664-.639A2.041,2.041,0,0,1,14.36,8.1a2.062,2.062,0,0,1,.693-1.554A2.356,2.356,0,0,1,16.716,5.9a2.329,2.329,0,0,1,1.657.646,2.094,2.094,0,0,1,0,3.1Z"/></svg>