<svg xmlns="http://www.w3.org/2000/svg" width="33.303" height="31.971" viewBox="0 0 33.303 31.971"><defs><style>.a{fill:#d8dce6;}.b{fill:#33a0ff;}</style></defs><path class="a" d="M159.207,26.891a4.562,4.562,0,0,0,1.145-3.1,4.051,4.051,0,0,0-4-4h-5.765a5.248,5.248,0,0,1,.166-.5,3.485,3.485,0,0,1,.229-.458c.1-.167.166-.292.208-.375q.375-.707.573-1.165a8.508,8.508,0,0,0,.4-1.249,6.49,6.49,0,0,0,.2-1.582c0-.333,0-.6-.011-.812a8.952,8.952,0,0,0-.1-.937,5.256,5.256,0,0,0-.25-1.04,4.848,4.848,0,0,0-.5-.937,2.918,2.918,0,0,0-.833-.843,4.562,4.562,0,0,0-1.249-.541,6.216,6.216,0,0,0-1.718-.219,1.281,1.281,0,0,0-.937.4,3.614,3.614,0,0,0-.708,1.04,6.2,6.2,0,0,0-.406,1.083q-.114.458-.26,1.27-.188.875-.281,1.259a6.657,6.657,0,0,1-.364,1.009,3.189,3.189,0,0,1-.645,1,30.776,30.776,0,0,0-2.1,2.5q-1.02,1.332-2.1,2.518t-1.582,1.228a1.365,1.365,0,0,0-.895.427,1.256,1.256,0,0,0-.375.905V37.11a1.246,1.246,0,0,0,.4.926,1.376,1.376,0,0,0,.937.406,15.219,15.219,0,0,1,3.289.916q1.6.54,2.508.822t2.529.6a15.466,15.466,0,0,0,3,.323h2.685a5.171,5.171,0,0,0,4.1-1.623,5,5,0,0,0,1.02-3.768,4.049,4.049,0,0,0,1.124-1.956,4.281,4.281,0,0,0,0-2.435,4.32,4.32,0,0,0,.895-2.852A4.96,4.96,0,0,0,159.207,26.891Z" transform="translate(-127.048 -9.136)"/><path class="b" d="M7.327,191.864H1.332a1.28,1.28,0,0,0-.937.4,1.28,1.28,0,0,0-.4.937v13.322a1.281,1.281,0,0,0,.4.937,1.282,1.282,0,0,0,.937.4H7.327a1.35,1.35,0,0,0,1.332-1.332V193.2a1.351,1.351,0,0,0-1.332-1.332ZM4.933,204.8a1.3,1.3,0,0,1-.937.385,1.332,1.332,0,0,1-.947-2.269,1.319,1.319,0,0,1,1.884,0,1.319,1.319,0,0,1,0,1.884Z" transform="translate(0 -178.543)"/></svg>