<svg xmlns="http://www.w3.org/2000/svg" width="17.271" height="17.271" viewBox="0 0 17.271 17.271"><defs><style>.a{fill:#f54848;}</style></defs><path class="a" d="M24.127,12.322l-2.188-.973L20.965,9.16l-2.381.249L16.647,8l-1.938,1.4L12.33,9.16l-.973,2.188-2.189.974L9.417,14.7l-1.4,1.937,1.4,1.938-.249,2.38,2.188.973.974,2.189,2.381-.249,1.937,1.4,1.938-1.4,2.38.249.973-2.188,2.189-.974-.249-2.381,1.4-1.937-1.4-1.938ZM14.92,20.094,12.476,17.65l.815-.812,1.629,1.626,4.885-4.885.815.815Zm0,0" transform="translate(-8.012 -8.004)"/></svg>