<svg xmlns="http://www.w3.org/2000/svg" width="27.455" height="20.753" viewBox="0 0 27.455 20.753"><defs><style>.a{fill:#33a0ff;}.b{fill:#d8dce6;}</style></defs><g transform="translate(0 0)"><path class="a" d="M72.329,165.184a1.472,1.472,0,0,0,2.082,2.082,10.173,10.173,0,0,1,14.37,0,1.47,1.47,0,0,0,2.076-2.082A13.109,13.109,0,0,0,72.329,165.184Z" transform="translate(-67.866 -155.648)"/><path class="a" d="M143.129,263.675a1.472,1.472,0,0,0,2.082,2.082,4.538,4.538,0,0,1,6.419,0,1.468,1.468,0,0,0,2.076-2.076A7.479,7.479,0,0,0,143.129,263.675Z" transform="translate(-134.693 -250.167)"/><circle class="a" cx="1.958" cy="1.958" r="1.958" transform="translate(11.769 16.836)"/><path class="b" d="M27.026,65.221a18.836,18.836,0,0,0-26.6,0A1.472,1.472,0,0,0,2.511,67.3a15.88,15.88,0,0,1,22.439,0,1.47,1.47,0,0,0,2.076-2.082Z" transform="translate(0 -59.725)"/></g></svg>